<?xml version="1.0" encoding="utf-8" ?>
<svg baseProfile="full" height="25cm" version="1.1" width="35cm" xmlns="http://www.w3.org/2000/svg" xmlns:ev="http://www.w3.org/2001/xml-events" xmlns:xlink="http://www.w3.org/1999/xlink"><defs /><g id="hlines" stroke="green" /><g fill="red" id="shapes"><rect fill="none" height="45mm" stroke="black" stroke-width="1" width="45mm" x="5cm" y="20cm" /><rect fill="none" height="45mm" stroke="black" stroke-width="1" width="45mm" x="10cm" y="20cm" /><rect fill="none" height="45mm" stroke="black" stroke-width="1" width="45mm" x="15cm" y="20cm" /><rect fill="none" height="45mm" stroke="black" stroke-width="1" width="45mm" x="22.5cm" y="20cm" /><rect fill="none" height="45mm" stroke="black" stroke-width="1" width="15cm" x="5cm" y="15cm" /><rect fill="none" height="45mm" stroke="black" stroke-width="1" width="9.5cm" x="20.5cm" y="15cm" /><rect fill="none" height="45mm" stroke="black" stroke-width="1" width="25cm" x="5cm" y="10cm" /><rect fill="none" height="45mm" stroke="black" stroke-width="1" width="12.25cm" x="5cm" y="5cm" /><rect fill="none" height="45mm" stroke="black" stroke-width="1" width="12cm" x="18cm" y="5cm" /><rect fill="none" height="35mm" stroke="black" stroke-width="1" width="2.5cm" x="5cm" y="1cm" /><rect fill="none" height="35mm" stroke="black" stroke-width="1" width="2.5cm" x="8cm" y="1cm" /><rect fill="none" height="35mm" stroke="black" stroke-width="1" width="2.5cm" x="11cm" y="1cm" /><rect fill="none" height="35mm" stroke="black" stroke-width="1" width="2.5cm" x="14cm" y="1cm" /><rect fill="none" height="35mm" stroke="black" stroke-width="1" width="2.5cm" x="18cm" y="1cm" /><rect fill="none" height="35mm" stroke="black" stroke-width="1" width="2.5cm" x="21cm" y="1cm" /><rect fill="none" height="35mm" stroke="black" stroke-width="1" width="2.5cm" x="24cm" y="1cm" /><rect fill="none" height="35mm" stroke="black" stroke-width="1" width="2.5cm" x="27cm" y="1cm" /><text fill="black" style="font-size:22px; font-family:Courier New" x="2cm" y="22cm">策略</text><text fill="black" style="font-size:22px; font-family:Courier New" x="2cm" y="17cm">引擎</text><text fill="black" style="font-size:22px; font-family:Courier New" x="2cm" y="12cm">风控</text><text fill="black" style="font-size:22px; font-family:Courier New" x="2cm" y="7cm">接口</text><text fill="black" style="font-size:22px; font-family:Courier New" x="2cm" y="3cm">交易所</text><text fill="black" style="font-size:22px; font-family:Courier New" x="7cm" y="22cm">T</text><text fill="black" style="font-size:22px; font-family:Courier New" x="12cm" y="22cm">B</text><text fill="black" style="font-size:22px; font-family:Courier New" x="17cm" y="22cm">V</text><text fill="black" style="font-size:22px; font-family:Courier New" x="24cm" y="22cm">F</text><text fill="black" style="font-size:22px; font-family:Courier New" x="10cm" y="17cm">CTA</text><text fill="black" style="font-size:22px; font-family:Courier New" x="24cm" y="17cm">PAIR</text><text fill="black" style="font-size:22px; font-family:Courier New" x="16cm" y="12cm">RISK</text><text fill="black" style="font-size:22px; font-family:Courier New" x="10cm" y="7cm">CTP</text><text fill="black" style="font-size:22px; font-family:Courier New" x="24cm" y="7cm">IB</text><text fill="black" style="font-size:22px; font-family:Courier New" x="5.5cm" y="3cm">SHFE</text><text fill="black" style="font-size:22px; font-family:Courier New" x="8.5cm" y="3cm">DCE</text><text fill="black" style="font-size:22px; font-family:Courier New" x="11.5cm" y="3cm">CZCE</text><text fill="black" style="font-size:22px; font-family:Courier New" x="14cm" y="3cm">CFFEX</text><text fill="black" style="font-size:22px; font-family:Courier New" x="18.5cm" y="3cm">HKFE</text><text fill="black" style="font-size:22px; font-family:Courier New" x="21cm" y="3cm">OSE.JPN</text><text fill="black" style="font-size:22px; font-family:Courier New" x="24cm" y="3cm">GLOBEX</text><text fill="black" style="font-size:22px; font-family:Courier New" x="27cm" y="3cm">CME</text></g></svg>